<?xml version="1.0" encoding="utf-8"?>
<!-- Generator: Adobe Illustrator 27.0.0, SVG Export Plug-In . SVG Version: 6.00 Build 0)  -->
<svg version="1.1" id="Capa_1" xmlns="http://www.w3.org/2000/svg" xmlns:xlink="http://www.w3.org/1999/xlink" x="0px" y="0px"
	 viewBox="0 0 132 183" style="enable-background:new 0 0 132 183;" xml:space="preserve">
<style type="text/css">
	.st0{fill-rule:evenodd;clip-rule:evenodd;fill:#001D5C;}
	.st1{fill:#001D5C;}
	.st2{fill:#FFFFFF;}
</style>
<path class="st0" d="M98.99,139.47c0.59-0.05,6.96-2.97,7.74-3.44c0.61-0.37,1.56-0.78,2.44-1.31l6.2-3.75l2.92-2.05
	c0.57-0.43,5.5-4.13,5.5-4.52V81.51H99.2c-0.3,0-0.21,0.37-0.21,0.68c0.06,4.41,0,9.22,0,13.64V139.47z"/>
<path class="st0" d="M10.57,33.99v41.66c0,0.16,0.05,0.2,0.2,0.2h24.68v-6.89c0-0.29-0.31-0.21-0.61-0.21c-3.94,0.07-8.39,0-12.34,0
	c-1.04,0-2.26,0.06-3.28,0.01c-0.42-0.02-0.52-0.3-0.82-0.82c-0.2-0.35-0.39-0.78-0.53-1.17c-0.94-2.62,0.94-4.75,1.01-5.04
	c5.21,0,10.63-0.05,15.82,0c0.39,0,0.69,0.11,0.75-0.2V18.38c-0.37,0.03-2.2,0.87-2.68,1.07l-4.29,2.05
	c-0.27,0.16-0.53,0.28-0.8,0.42c-1.34,0.67-4.69,2.64-5.66,3.27c-0.95,0.63-2.12,1.34-3.04,2.01c-0.26,0.19-0.45,0.32-0.72,0.5
	l-2.2,1.62c-0.89,0.69-2.77,2.1-3.5,2.77c-0.15,0.14-0.16,0.15-0.33,0.29C11.97,32.6,10.57,33.78,10.57,33.99"/>
<path class="st0" d="M10.57,81.85v40.57c0,0.4,0.26,0.43,0.53,0.69l0.99,0.92c1.57,1.33,2.96,2.55,4.64,3.81
	c0.27,0.2,0.47,0.35,0.74,0.55c0.27,0.2,0.48,0.36,0.74,0.55c0.26,0.2,0.5,0.33,0.76,0.53c1.18,0.89,4.79,3.27,6.23,4.06
	c0.32,0.18,0.53,0.29,0.83,0.47l4.22,2.26c0.57,0.29,1.18,0.63,1.73,0.85c0.33,0.13,0.58,0.27,0.88,0.42
	c0.29,0.14,0.59,0.25,0.91,0.39c0.31,0.14,0.58,0.27,0.89,0.41c0.17,0.08,0.26,0.11,0.43,0.19c0.16,0.08,0.36,0.2,0.36-0.1V95.9
	c0-0.34-1.21-0.2-1.84-0.2H18.96c-0.31-0.58-1.5-1.65-1.5-3.48c0-0.82,0.28-1.52,0.57-2.09c0.23-0.45,0.47-0.88,0.78-1.27
	c0.16-0.2,0.16-0.19,0.49-0.19c3.41-0.06,7.42,0,10.91,0l4.78,0c0.25,0,0.47,0.05,0.47-0.21v-6.75c0-0.33-0.64-0.2-1.3-0.2H10.64
	C10.61,81.67,10.57,81.67,10.57,81.85"/>
<path class="st0" d="M70.7,81.72v6.75c0,0.16,0.05,0.21,0.21,0.21h13.97v28.23h-7.02V95.69H70.7v49.5l4.62-0.22
	c0.43-0.06,0.94-0.08,1.43-0.14c5.87-0.73,8.71-1.16,14.28-2.69c0.75-0.2,1.01-0.11,1.01-0.56V81.85c0-0.18-0.03-0.19-0.07-0.34
	c-6.89,0-13.92,0.05-20.8,0C70.92,81.5,70.7,81.46,70.7,81.72"/>
<path class="st0" d="M70.7,12.45v63.41h21.13c0.16,0,0.21-0.05,0.21-0.2v-6.68c0-0.16-0.05-0.2-0.21-0.2H77.86V40.54h7.02v21.2h6.95
	c0.16,0,0.21-0.05,0.21-0.21V16.06c0-0.31-0.58-0.37-1.06-0.51l-3.77-1c-3.19-0.75-7.45-1.57-10.79-1.89l-5.16-0.36
	c-0.06-0.01-0.16-0.04-0.25-0.05h-0.15C70.77,12.26,70.7,12.32,70.7,12.45"/>
<path class="st0" d="M42.41,16.06v59.59c0,0.16,0.05,0.2,0.2,0.2h21.06v-7.09H49.57V40.54h7.02v21.2h7.09v-49.5h-0.02
	c-0.34,0-0.36,0.05-0.66,0.07c-0.26,0.01-0.55-0.02-0.81,0c-2.6,0.21-4.52,0.35-7.11,0.72c-2.7,0.39-5.28,0.91-7.89,1.52l-3.71,0.99
	C42.97,15.7,42.41,15.75,42.41,16.06"/>
<path class="st0" d="M42.41,81.85v6.61c0,0.16,0.05,0.21,0.2,0.21h13.97v28.23h-7.02V95.69h-6.96c-0.16,0-0.2,0.05-0.2,0.2v45.13
	c0,0.3,0.57,0.38,1.03,0.54c1.24,0.42,2.44,0.66,3.74,1.04c2.7,0.8,10.7,2.19,13.51,2.31c0.98,0.04,1.97,0.2,3,0.2V81.51h-21.2
	C42.44,81.67,42.41,81.67,42.41,81.85"/>
<rect x="98.99" y="47.56" class="st0" width="24.81" height="28.29"/>
<path class="st0" d="M99.2,40.54h24.61v-6.61c0-0.53-7.03-5.82-7.62-6.22l-4.56-3.01c-0.16-0.1-0.23-0.14-0.37-0.24
	c-0.16-0.11-0.26-0.14-0.43-0.25l-4.01-2.26c-0.3-0.18-0.55-0.27-0.84-0.45c-0.58-0.36-4.33-2.08-5.14-2.42
	c-0.36-0.15-1.52-0.67-1.82-0.7v20.93C98.99,39.95,98.87,40.54,99.2,40.54"/>
<g>
	<path class="st1" d="M10.09,164.48c0.39,0,0.59,0.16,0.59,0.48c0,0.24-0.18,0.42-0.54,0.55c-0.63,0.23-0.94,0.63-0.94,1.21
		c0,0.47,0.18,0.83,0.55,1.09c0.31,0.22,0.71,0.33,1.19,0.33c0.96,0,1.8-0.28,2.52-0.84c0.45-0.36,0.68-0.81,0.68-1.35
		c0-0.33-0.07-0.64-0.2-0.91c-0.14-0.28-0.35-0.62-0.63-1.05c-0.44-0.66-0.8-1.25-1.1-1.79c-0.33-0.6-0.5-1.18-0.5-1.76
		c0-1.36,0.67-2.63,2.02-3.82c0.71-0.62,1.5-1.12,2.36-1.5c0.71-0.31,1.4-0.47,2.06-0.47c0.43,0,0.79,0.11,1.09,0.34
		c0.36,0.27,0.54,0.64,0.54,1.1c0,0.73-0.39,1.51-1.18,2.36c-0.74,0.79-1.61,1.44-2.6,1.94c-0.49,0.25-0.87,0.37-1.12,0.37
		c-0.17,0-0.32-0.07-0.45-0.21c-0.09-0.09-0.13-0.2-0.13-0.32c0-0.27,0.24-0.49,0.72-0.65c0.88-0.31,1.66-0.75,2.33-1.32
		c0.87-0.73,1.31-1.36,1.31-1.91c0-0.21-0.09-0.38-0.26-0.51c-0.14-0.1-0.3-0.15-0.49-0.15c-0.5,0-1.13,0.19-1.89,0.58
		c-1.02,0.52-1.82,1.18-2.4,2c-0.51,0.71-0.76,1.39-0.76,2.06c0,0.49,0.13,0.99,0.4,1.5c0.23,0.41,0.51,0.88,0.86,1.41
		c0.33,0.5,0.62,0.97,0.85,1.4c0.27,0.51,0.4,0.98,0.4,1.43c0,0.86-0.49,1.62-1.47,2.28c-0.84,0.55-1.78,0.83-2.84,0.83
		c-1.04,0-1.85-0.29-2.44-0.86c-0.44-0.44-0.67-0.94-0.67-1.5c0-0.63,0.21-1.16,0.63-1.59c0.25-0.26,0.56-0.46,0.9-0.59
		C9.73,164.52,9.93,164.48,10.09,164.48z"/>
	<path class="st1" d="M20.8,161.65c0.6,0,0.89,0.36,0.89,1.09c0,0.97-0.45,2.19-1.34,3.67c-0.97,1.61-1.92,2.41-2.82,2.41
		c-0.42,0-0.73-0.2-0.93-0.59c-0.1-0.2-0.15-0.43-0.15-0.71c0-0.93,0.32-1.94,0.96-3.03c0.6-1.01,1.3-1.8,2.1-2.36
		C19.98,161.82,20.41,161.65,20.8,161.65z M19.66,165.77c-0.18-0.15-0.27-0.26-0.27-0.34c0-0.06,0.12-0.22,0.35-0.48
		c0.65-0.73,0.98-1.33,0.98-1.78c0-0.06-0.02-0.12-0.05-0.17c-0.06-0.11-0.15-0.16-0.27-0.16c-0.23,0-0.57,0.23-1.02,0.68
		c-0.58,0.58-1.02,1.18-1.33,1.8c-0.36,0.71-0.53,1.29-0.53,1.76c0,0.12,0.03,0.23,0.1,0.33c0.09,0.13,0.21,0.2,0.36,0.2
		c0.35,0,0.72-0.26,1.12-0.79c0.17-0.22,0.32-0.44,0.43-0.68C19.62,165.9,19.67,165.78,19.66,165.77z"/>
	<path class="st1" d="M23.56,165.06c-0.22,0.57-0.38,1.02-0.49,1.37c-0.11,0.35-0.16,0.59-0.16,0.73c0,0.18,0.09,0.27,0.26,0.27
		c0.26,0,0.6-0.25,1.01-0.74c0.2-0.24,0.49-0.67,0.87-1.3c0.15-0.25,0.31-0.37,0.48-0.37c0.19,0,0.28,0.09,0.28,0.27
		c0,0.31-0.36,0.94-1.08,1.9c-0.75,1-1.44,1.49-2.08,1.49c-0.28,0-0.5-0.12-0.68-0.35c-0.12-0.17-0.19-0.37-0.19-0.61
		c0-0.41,0.12-0.97,0.37-1.69c0.25-0.72,0.61-1.6,1.1-2.63c1.25-2.62,2.53-4.79,3.83-6.49c1.04-1.37,1.9-2.05,2.58-2.05
		c0.22,0,0.4,0.08,0.53,0.25c0.14,0.17,0.22,0.36,0.22,0.58c0,1.02-0.91,2.71-2.73,5.08c-0.81,1.05-1.79,2.11-2.92,3.16
		C24.48,164.23,24.07,164.6,23.56,165.06z M24.33,163.33c1.51-1.29,2.86-2.93,4.06-4.91c0.62-1.02,0.93-1.71,0.93-2.04
		c0-0.16-0.07-0.24-0.21-0.24c-0.4,0-1.13,0.8-2.18,2.39C26.05,159.84,25.19,161.44,24.33,163.33z"/>
	<path class="st1" d="M29.61,167.02c-0.31,0.44-0.59,0.79-0.83,1.05c-0.42,0.47-0.84,0.7-1.25,0.7c-0.36,0-0.63-0.16-0.83-0.48
		c-0.14-0.22-0.21-0.49-0.21-0.81c0-0.94,0.4-2.01,1.2-3.23c0.37-0.57,0.74-1,1.1-1.3c0.28-0.24,0.52-0.36,0.7-0.36
		c0.1,0,0.2,0.04,0.28,0.13c0.07,0.08,0.11,0.16,0.11,0.24c0,0.14-0.13,0.36-0.4,0.68c-0.6,0.72-1.06,1.38-1.37,1.98
		c-0.36,0.7-0.54,1.26-0.54,1.66c0,0.1,0.02,0.18,0.07,0.23c0.05,0.05,0.12,0.08,0.2,0.08c0.37,0,0.89-0.53,1.55-1.59
		c0.34-0.55,0.64-1.16,0.88-1.83c0.13-0.36,0.3-0.69,0.51-0.97c0.2-0.26,0.4-0.38,0.6-0.38c0.11,0,0.21,0.05,0.29,0.14
		c0.09,0.1,0.14,0.21,0.14,0.34c0,0.26-0.25,0.85-0.75,1.77c-0.34,0.63-0.51,1.16-0.51,1.58c0,0.45,0.12,0.84,0.36,1.15
		c0.06,0.09,0.27,0.23,0.6,0.42c0.16,0.09,0.24,0.25,0.24,0.46c0,0.13-0.06,0.24-0.17,0.34c-0.11,0.09-0.25,0.14-0.41,0.14
		c-0.36,0-0.69-0.15-0.99-0.44c-0.27-0.26-0.44-0.64-0.51-1.13C29.65,167.52,29.63,167.33,29.61,167.02z"/>
	<path class="st1" d="M36.31,161.92c0.57,0,0.86,0.3,0.86,0.91c0,0.53-0.21,1.06-0.62,1.6c-0.32,0.41-0.6,0.61-0.84,0.61
		c-0.2,0-0.31-0.12-0.31-0.35c0-0.12,0.03-0.22,0.09-0.29c0.02-0.03,0.11-0.11,0.26-0.25c0.13-0.12,0.27-0.31,0.4-0.56
		c0.09-0.17,0.14-0.3,0.14-0.4c0-0.12-0.07-0.17-0.2-0.17c-0.15,0-0.39,0.12-0.7,0.36c-0.49,0.39-0.99,0.99-1.48,1.81
		c-0.51,0.86-0.76,1.53-0.76,2.03c0,0.16,0.05,0.3,0.14,0.42c0.14,0.19,0.32,0.28,0.56,0.28c0.46,0,1-0.28,1.62-0.85
		c0.53-0.49,0.98-0.97,1.34-1.46c0.19-0.27,0.35-0.4,0.49-0.4c0.08,0,0.15,0.04,0.22,0.11c0.06,0.07,0.09,0.15,0.09,0.22
		c0,0.27-0.35,0.79-1.04,1.57c-1.1,1.22-2.09,1.83-2.99,1.83c-0.54,0-0.95-0.19-1.23-0.58c-0.2-0.28-0.31-0.62-0.31-1
		c0-0.76,0.31-1.63,0.94-2.63c0.6-0.95,1.3-1.72,2.09-2.3C35.56,162.09,35.96,161.92,36.31,161.92z"/>
	<path class="st1" d="M41.33,162.15c0.12,0,0.23,0.05,0.31,0.14c0.06,0.08,0.09,0.16,0.09,0.24c0,0.13-0.11,0.35-0.32,0.65
		c-0.76,1.17-1.29,2.13-1.61,2.89c-0.34,0.78-0.64,1.58-0.91,2.4c-0.12,0.36-0.3,0.55-0.55,0.55c-0.15,0-0.26-0.06-0.35-0.17
		c-0.08-0.09-0.12-0.2-0.12-0.31c0-0.22,0.23-0.94,0.7-2.18c0.36-0.98,0.95-2.05,1.77-3.23c0.26-0.39,0.46-0.64,0.59-0.77
		C41.06,162.22,41.19,162.15,41.33,162.15z M43.4,158.11c0.33,0,0.49,0.17,0.49,0.5c0,0.31-0.16,0.64-0.48,1.01
		c-0.3,0.36-0.6,0.53-0.88,0.53c-0.14,0-0.25-0.05-0.34-0.15c-0.09-0.09-0.13-0.21-0.13-0.35c0-0.35,0.19-0.72,0.58-1.11
		C42.92,158.25,43.18,158.11,43.4,158.11z"/>
	<path class="st1" d="M45.63,161.65c0.6,0,0.89,0.36,0.89,1.09c0,0.97-0.45,2.19-1.34,3.67c-0.97,1.61-1.92,2.41-2.82,2.41
		c-0.42,0-0.73-0.2-0.93-0.59c-0.1-0.2-0.15-0.43-0.15-0.71c0-0.93,0.32-1.94,0.96-3.03c0.6-1.01,1.3-1.8,2.1-2.36
		C44.81,161.82,45.24,161.65,45.63,161.65z M44.49,165.77c-0.18-0.15-0.27-0.26-0.27-0.34c0-0.06,0.12-0.22,0.35-0.48
		c0.65-0.73,0.98-1.33,0.98-1.78c0-0.06-0.02-0.12-0.05-0.17c-0.06-0.11-0.15-0.16-0.27-0.16c-0.23,0-0.57,0.23-1.02,0.68
		c-0.58,0.58-1.03,1.18-1.33,1.8c-0.36,0.71-0.53,1.29-0.53,1.76c0,0.12,0.03,0.23,0.1,0.33c0.09,0.13,0.21,0.2,0.36,0.2
		c0.35,0,0.72-0.26,1.12-0.79c0.17-0.22,0.32-0.44,0.43-0.68C44.45,165.9,44.5,165.78,44.49,165.77z"/>
	<path class="st1" d="M48.61,164.94c0.09-0.09,0.19-0.17,0.27-0.26c1.52-1.48,2.54-2.22,3.05-2.22c0.28,0,0.43,0.16,0.43,0.47
		c0,0.22-0.13,0.48-0.38,0.77c-1.39,1.62-2.08,3.05-2.08,4.29c0,0.4,0.11,0.78,0.33,1.15c0.1,0.17,0.15,0.3,0.15,0.39
		c0,0.09-0.04,0.17-0.13,0.25c-0.09,0.1-0.21,0.15-0.34,0.15c-0.3,0-0.55-0.19-0.75-0.57c-0.2-0.36-0.29-0.79-0.29-1.3
		c0-0.98,0.37-2.07,1.11-3.26c-0.99,0.63-1.91,1.75-2.76,3.36c-0.22,0.39-0.45,0.58-0.7,0.58c-0.12,0-0.23-0.04-0.31-0.13
		c-0.1-0.1-0.15-0.23-0.15-0.39c0-0.39,0.45-1.42,1.34-3.09c0.48-0.9,0.86-1.56,1.13-1.96c0.28-0.4,0.51-0.6,0.71-0.6
		c0.09,0,0.19,0.04,0.27,0.13c0.1,0.1,0.15,0.22,0.15,0.35c0,0.16-0.11,0.39-0.32,0.69C49.05,164.18,48.8,164.58,48.61,164.94z"/>
	<path class="st1" d="M53.19,166.59v0.2c0,0.16,0.04,0.3,0.12,0.41c0.18,0.27,0.48,0.4,0.89,0.4c0.91,0,1.96-0.7,3.15-2.09
		c0.21-0.24,0.39-0.36,0.53-0.36c0.08,0,0.15,0.04,0.22,0.12c0.04,0.06,0.07,0.11,0.07,0.16c0,0.28-0.35,0.76-1.05,1.44
		c-0.54,0.53-1.13,0.96-1.75,1.3c-0.62,0.33-1.19,0.5-1.72,0.5c-0.55,0-0.97-0.19-1.29-0.57c-0.21-0.26-0.32-0.62-0.32-1.07
		c0-1.23,0.58-2.43,1.73-3.61c0.94-0.96,1.76-1.44,2.45-1.44c0.19,0,0.36,0.06,0.51,0.17c0.19,0.15,0.28,0.35,0.28,0.6
		c0,0.39-0.18,0.86-0.53,1.42C55.78,165.34,54.67,166.15,53.19,166.59z M53.44,165.74c0.51-0.17,0.91-0.37,1.2-0.59
		c0.51-0.39,0.91-0.84,1.21-1.33c0.11-0.18,0.16-0.33,0.16-0.47c0-0.14-0.07-0.22-0.21-0.22c-0.19,0-0.46,0.14-0.81,0.42
		C54.37,164.06,53.85,164.79,53.44,165.74z"/>
	<path class="st1" d="M63.48,161.44c0.45,0,0.79,0.08,1.01,0.24c0.23,0.16,0.34,0.4,0.34,0.73c0,0.43-0.16,0.84-0.48,1.24
		c-0.31,0.38-0.76,0.68-1.37,0.92c-0.33,0.12-0.61,0.19-0.84,0.19c-0.31,0-0.46-0.13-0.46-0.4c0-0.18,0.09-0.32,0.26-0.41
		c0.04-0.02,0.29-0.08,0.74-0.19c0.27-0.06,0.52-0.19,0.74-0.38c0.2-0.17,0.29-0.35,0.29-0.54c0-0.15-0.04-0.27-0.13-0.34
		c-0.09-0.07-0.22-0.11-0.39-0.11c-0.42,0-0.89,0.17-1.4,0.51c-0.59,0.38-0.88,0.84-0.88,1.37c0,0.38,0.19,0.85,0.58,1.42
		c0.43,0.62,0.64,1.14,0.64,1.57c0,0.64-0.28,1.14-0.85,1.51c-0.35,0.23-0.75,0.34-1.19,0.34c-0.7,0-1.23-0.25-1.59-0.75
		c-0.25-0.36-0.38-0.78-0.38-1.27c0-0.57,0.15-1.04,0.44-1.43c0.19-0.25,0.39-0.38,0.59-0.38c0.18,0,0.27,0.07,0.27,0.22
		c0,0.06-0.03,0.15-0.1,0.26c-0.17,0.31-0.25,0.68-0.25,1.1c0,0.36,0.13,0.66,0.38,0.9c0.23,0.22,0.48,0.33,0.77,0.33
		c0.28,0,0.51-0.09,0.67-0.28c0.13-0.16,0.2-0.36,0.2-0.61c0-0.31-0.17-0.7-0.52-1.19c-0.48-0.67-0.72-1.28-0.72-1.82
		c0-0.73,0.4-1.37,1.19-1.93C61.81,161.71,62.62,161.44,63.48,161.44z"/>
	<path class="st1" d="M75.03,160.61l0.44-0.08c1.61-0.31,2.73-0.46,3.36-0.46c0.46,0,0.69,0.19,0.69,0.56
		c0,0.23-0.09,0.39-0.27,0.47c-0.12,0.06-0.33,0.1-0.63,0.11c-1.88,0.12-3.32,0.34-4.3,0.67c-0.38,0.57-0.95,1.65-1.69,3.22
		c-0.43,0.92-0.76,1.76-1,2.54c0.17-0.06,0.33-0.12,0.49-0.17c1.08-0.36,1.87-0.6,2.38-0.71c0.68-0.13,1.31-0.2,1.91-0.2
		c0.39,0,0.68,0.05,0.87,0.14c0.17,0.08,0.25,0.23,0.25,0.46s-0.1,0.38-0.31,0.45c-0.09,0.03-0.32,0.05-0.68,0.05
		c-1.93,0.1-3.64,0.57-5.15,1.42c-0.2,0.11-0.36,0.16-0.5,0.16c-0.2,0-0.39-0.1-0.55-0.32c-0.14-0.18-0.21-0.35-0.21-0.53
		s0.23-0.85,0.69-2.01c0.69-1.75,1.63-3.67,2.82-5.76c0.36-0.63,1.03-1.7,2.03-3.19c0.22-0.35,0.44-0.69,0.65-1.02
		c-0.29-0.07-0.44-0.27-0.44-0.58c0-0.23,0.12-0.4,0.35-0.51c0.38-0.17,1.1-0.34,2.18-0.51c1.61-0.25,2.97-0.37,4.09-0.37
		c0.63,0,0.95,0.17,0.95,0.5c0,0.23-0.11,0.43-0.33,0.59c-0.11,0.08-0.28,0.12-0.52,0.12c-0.02,0-0.1,0-0.25-0.01
		c-0.11,0-0.23,0-0.36,0c-0.52,0-1.28,0.05-2.27,0.16c-0.86,0.1-1.6,0.23-2.21,0.42c0.07,0.11,0.11,0.2,0.11,0.26
		c0,0.12-0.17,0.41-0.51,0.85l-0.52,0.81C75.84,159.23,75.32,160.06,75.03,160.61z"/>
	<path class="st1" d="M80.34,163.54c1.11-2.4,2.2-4.35,3.26-5.86c0.72-1.02,1.32-1.76,1.79-2.23c0.33-0.33,0.61-0.49,0.84-0.49
		c0.09,0,0.16,0.03,0.23,0.09c0.1,0.07,0.15,0.17,0.15,0.29c0,0.16-0.13,0.39-0.38,0.69c-1.61,1.83-3.06,4.03-4.36,6.59
		c1.16-0.44,1.97-0.67,2.43-0.67c0.33,0,0.61,0.08,0.83,0.25c0.23,0.17,0.34,0.37,0.34,0.6c0,0.12-0.04,0.22-0.12,0.32
		c-0.11,0.14-0.25,0.21-0.43,0.21c-0.12,0-0.37-0.1-0.73-0.31c-0.1-0.05-0.23-0.08-0.39-0.08c-0.73,0-1.6,0.33-2.62,0.99
		c0.44,0.2,0.74,0.47,0.93,0.81c0.25,0.47,0.37,1.05,0.37,1.74c0,1.78-0.53,3.66-1.59,5.64c-0.46,0.84-0.9,1.48-1.33,1.92
		c-0.46,0.47-0.93,0.71-1.41,0.71c-0.36,0-0.66-0.17-0.88-0.52c-0.18-0.29-0.27-0.69-0.27-1.19c0-1.08,0.41-2.69,1.22-4.85
		c0.1-0.26,0.39-0.93,0.87-2.02c0.12-0.27,0.24-0.56,0.36-0.86c-0.06,0.02-0.11,0.02-0.16,0.02c-0.2,0-0.29-0.11-0.29-0.33
		C78.99,164.62,79.44,164.13,80.34,163.54z M80.71,164.97c-0.41,0.77-0.94,2.01-1.61,3.73c-0.69,1.75-1.04,3.11-1.04,4.08
		c0,0.19,0.05,0.36,0.14,0.5c0.1,0.15,0.22,0.22,0.36,0.22c0.45,0,1.04-0.76,1.78-2.27c0.83-1.69,1.24-3.23,1.24-4.63
		c0-0.55-0.1-0.96-0.32-1.23C81.18,165.25,81,165.12,80.71,164.97z"/>
	<path class="st1" d="M87.1,162.15c0.12,0,0.23,0.05,0.31,0.14c0.06,0.08,0.09,0.16,0.09,0.24c0,0.13-0.11,0.35-0.32,0.65
		c-0.76,1.17-1.29,2.13-1.61,2.89c-0.34,0.78-0.64,1.58-0.91,2.4c-0.12,0.36-0.3,0.55-0.54,0.55c-0.15,0-0.26-0.06-0.35-0.17
		c-0.08-0.09-0.12-0.2-0.12-0.31c0-0.22,0.23-0.94,0.7-2.18c0.36-0.98,0.95-2.05,1.77-3.23c0.26-0.39,0.46-0.64,0.59-0.77
		C86.83,162.22,86.96,162.15,87.1,162.15z M89.17,158.11c0.33,0,0.49,0.17,0.49,0.5c0,0.31-0.16,0.64-0.48,1.01
		c-0.31,0.36-0.6,0.53-0.88,0.53c-0.14,0-0.25-0.05-0.34-0.15c-0.09-0.09-0.13-0.21-0.13-0.35c0-0.35,0.19-0.72,0.58-1.11
		C88.69,158.25,88.95,158.11,89.17,158.11z"/>
	<path class="st1" d="M91.13,161.92c0.57,0,0.86,0.3,0.86,0.91c0,0.53-0.21,1.06-0.62,1.6c-0.32,0.41-0.6,0.61-0.84,0.61
		c-0.2,0-0.31-0.12-0.31-0.35c0-0.12,0.03-0.22,0.09-0.29c0.02-0.03,0.11-0.11,0.26-0.25c0.13-0.12,0.26-0.31,0.4-0.56
		c0.1-0.17,0.14-0.3,0.14-0.4c0-0.12-0.07-0.17-0.2-0.17c-0.15,0-0.39,0.12-0.7,0.36c-0.49,0.39-0.99,0.99-1.48,1.81
		c-0.51,0.86-0.76,1.53-0.76,2.03c0,0.16,0.05,0.3,0.14,0.42c0.14,0.19,0.32,0.28,0.56,0.28c0.46,0,1-0.28,1.62-0.85
		c0.53-0.49,0.98-0.97,1.34-1.46c0.19-0.27,0.35-0.4,0.49-0.4c0.08,0,0.15,0.04,0.22,0.11c0.06,0.07,0.09,0.15,0.09,0.22
		c0,0.27-0.35,0.79-1.04,1.57c-1.1,1.22-2.09,1.83-2.99,1.83c-0.54,0-0.95-0.19-1.23-0.58c-0.2-0.28-0.31-0.62-0.31-1
		c0-0.76,0.31-1.63,0.94-2.63c0.6-0.95,1.3-1.72,2.09-2.3C90.38,162.09,90.78,161.92,91.13,161.92z"/>
	<path class="st1" d="M96.15,162.15c0.12,0,0.23,0.05,0.31,0.14c0.06,0.08,0.09,0.16,0.09,0.24c0,0.13-0.11,0.35-0.32,0.65
		c-0.76,1.17-1.29,2.13-1.61,2.89c-0.34,0.78-0.64,1.58-0.91,2.4c-0.12,0.36-0.3,0.55-0.54,0.55c-0.14,0-0.26-0.06-0.35-0.17
		c-0.08-0.09-0.12-0.2-0.12-0.31c0-0.22,0.23-0.94,0.7-2.18c0.36-0.98,0.95-2.05,1.77-3.23c0.26-0.39,0.46-0.64,0.59-0.77
		C95.88,162.22,96.01,162.15,96.15,162.15z M98.22,158.11c0.33,0,0.49,0.17,0.49,0.5c0,0.31-0.16,0.64-0.48,1.01
		c-0.31,0.36-0.6,0.53-0.88,0.53c-0.14,0-0.25-0.05-0.34-0.15c-0.09-0.09-0.13-0.21-0.13-0.35c0-0.35,0.19-0.72,0.58-1.11
		C97.74,158.25,98,158.11,98.22,158.11z"/>
	<path class="st1" d="M97.09,166.59v0.2c0,0.16,0.04,0.3,0.12,0.41c0.18,0.27,0.48,0.4,0.89,0.4c0.91,0,1.96-0.7,3.15-2.09
		c0.21-0.24,0.39-0.36,0.53-0.36c0.08,0,0.15,0.04,0.22,0.12c0.04,0.06,0.07,0.11,0.07,0.16c0,0.28-0.35,0.76-1.05,1.44
		c-0.54,0.53-1.13,0.96-1.74,1.3c-0.62,0.33-1.19,0.5-1.72,0.5c-0.55,0-0.97-0.19-1.29-0.57c-0.21-0.26-0.32-0.62-0.32-1.07
		c0-1.23,0.58-2.43,1.73-3.61c0.94-0.96,1.76-1.44,2.45-1.44c0.19,0,0.36,0.06,0.51,0.17c0.19,0.15,0.28,0.35,0.28,0.6
		c0,0.39-0.18,0.86-0.53,1.42C99.67,165.34,98.56,166.15,97.09,166.59z M97.33,165.74c0.51-0.17,0.91-0.37,1.2-0.59
		c0.51-0.39,0.91-0.84,1.21-1.33c0.11-0.18,0.16-0.33,0.16-0.47c0-0.14-0.07-0.22-0.21-0.22c-0.19,0-0.46,0.14-0.81,0.42
		C98.26,164.06,97.74,164.79,97.33,165.74z"/>
	<path class="st1" d="M104.38,164.94c0.09-0.09,0.19-0.17,0.27-0.26c1.52-1.48,2.54-2.22,3.05-2.22c0.28,0,0.42,0.16,0.42,0.47
		c0,0.22-0.13,0.48-0.38,0.77c-1.39,1.62-2.08,3.05-2.08,4.29c0,0.4,0.11,0.78,0.33,1.15c0.1,0.17,0.15,0.3,0.15,0.39
		c0,0.09-0.04,0.17-0.13,0.25c-0.09,0.1-0.21,0.15-0.34,0.15c-0.3,0-0.55-0.19-0.75-0.57c-0.2-0.36-0.29-0.79-0.29-1.3
		c0-0.98,0.37-2.07,1.11-3.26c-0.99,0.63-1.91,1.75-2.76,3.36c-0.22,0.39-0.45,0.58-0.7,0.58c-0.12,0-0.23-0.04-0.3-0.13
		c-0.1-0.1-0.15-0.23-0.15-0.39c0-0.39,0.45-1.42,1.34-3.09c0.48-0.9,0.86-1.56,1.13-1.96c0.28-0.4,0.51-0.6,0.71-0.6
		c0.09,0,0.18,0.04,0.27,0.13c0.1,0.1,0.15,0.22,0.15,0.35c0,0.16-0.1,0.39-0.32,0.69C104.82,164.18,104.57,164.58,104.38,164.94z"
		/>
	<path class="st1" d="M112.1,161.66c-0.47,0.74-0.91,1.56-1.31,2.46c-0.57,1.29-0.86,2.26-0.86,2.9c0,0.18,0.04,0.32,0.11,0.41
		c0.08,0.09,0.19,0.14,0.34,0.14c0.36,0,0.8-0.34,1.32-1.03c0.33-0.42,0.62-0.84,0.87-1.26c0.14-0.24,0.29-0.36,0.45-0.36
		c0.09,0,0.17,0.03,0.24,0.1c0.06,0.07,0.09,0.13,0.09,0.2c0,0.27-0.35,0.87-1.06,1.8c-0.84,1.12-1.61,1.68-2.31,1.68
		c-0.37,0-0.68-0.17-0.93-0.51c-0.15-0.22-0.23-0.53-0.23-0.93c0-0.88,0.25-1.9,0.76-3.07c0.12-0.29,0.47-0.99,1.03-2.1
		c-0.2,0.05-0.35,0.08-0.45,0.08c-0.15,0-0.29-0.04-0.4-0.11c-0.16-0.1-0.24-0.23-0.24-0.38c0-0.18,0.11-0.33,0.32-0.44
		c0.06-0.03,0.33-0.08,0.81-0.14c0.18-0.03,0.43-0.1,0.76-0.21c0.25-0.46,0.67-1.08,1.24-1.87c0.32-0.44,0.54-0.72,0.67-0.85
		c0.17-0.18,0.33-0.27,0.46-0.27c0.09,0,0.19,0.05,0.28,0.15c0.09,0.09,0.13,0.19,0.13,0.28c0,0.19-0.2,0.56-0.61,1.12
		c-0.27,0.36-0.47,0.66-0.6,0.88c0.81-0.22,1.38-0.33,1.73-0.33c0.4,0,0.6,0.17,0.6,0.5c0,0.17-0.07,0.29-0.21,0.37
		c-0.07,0.04-0.26,0.08-0.57,0.11c-0.12-0.01-0.67,0.13-1.65,0.41C112.63,161.49,112.36,161.57,112.1,161.66z"/>
	<path class="st1" d="M114.42,166.59v0.2c0,0.16,0.04,0.3,0.12,0.41c0.18,0.27,0.48,0.4,0.89,0.4c0.91,0,1.96-0.7,3.15-2.09
		c0.21-0.24,0.39-0.36,0.53-0.36c0.08,0,0.15,0.04,0.22,0.12c0.04,0.06,0.07,0.11,0.07,0.16c0,0.28-0.35,0.76-1.05,1.44
		c-0.54,0.53-1.13,0.96-1.75,1.3c-0.62,0.33-1.19,0.5-1.72,0.5c-0.55,0-0.97-0.19-1.29-0.57c-0.21-0.26-0.32-0.62-0.32-1.07
		c0-1.23,0.58-2.43,1.73-3.61c0.94-0.96,1.76-1.44,2.45-1.44c0.19,0,0.36,0.06,0.51,0.17c0.19,0.15,0.28,0.35,0.28,0.6
		c0,0.39-0.18,0.86-0.53,1.42C117,165.34,115.89,166.15,114.42,166.59z M114.66,165.74c0.51-0.17,0.91-0.37,1.2-0.59
		c0.51-0.39,0.91-0.84,1.21-1.33c0.11-0.18,0.16-0.33,0.16-0.47c0-0.14-0.07-0.22-0.21-0.22c-0.19,0-0.46,0.14-0.81,0.42
		C115.59,164.06,115.07,164.79,114.66,165.74z"/>
	<path class="st1" d="M124.7,161.44c0.45,0,0.79,0.08,1.01,0.24c0.23,0.16,0.34,0.4,0.34,0.73c0,0.43-0.16,0.84-0.48,1.24
		c-0.31,0.38-0.76,0.68-1.37,0.92c-0.33,0.12-0.61,0.19-0.84,0.19c-0.31,0-0.46-0.13-0.46-0.4c0-0.18,0.09-0.32,0.26-0.41
		c0.04-0.02,0.29-0.08,0.74-0.19c0.27-0.06,0.52-0.19,0.74-0.38c0.2-0.17,0.29-0.35,0.29-0.54c0-0.15-0.04-0.27-0.13-0.34
		c-0.09-0.07-0.22-0.11-0.39-0.11c-0.42,0-0.89,0.17-1.4,0.51c-0.59,0.38-0.88,0.84-0.88,1.37c0,0.38,0.19,0.85,0.58,1.42
		c0.43,0.62,0.64,1.14,0.64,1.57c0,0.64-0.28,1.14-0.85,1.51c-0.35,0.23-0.75,0.34-1.19,0.34c-0.7,0-1.23-0.25-1.59-0.75
		c-0.25-0.36-0.38-0.78-0.38-1.27c0-0.57,0.15-1.04,0.44-1.43c0.19-0.25,0.39-0.38,0.59-0.38c0.18,0,0.27,0.07,0.27,0.22
		c0,0.06-0.03,0.15-0.1,0.26c-0.17,0.31-0.25,0.68-0.25,1.1c0,0.36,0.13,0.66,0.38,0.9c0.23,0.22,0.48,0.33,0.77,0.33
		c0.28,0,0.51-0.09,0.67-0.28c0.13-0.16,0.2-0.36,0.2-0.61c0-0.31-0.17-0.7-0.52-1.19c-0.48-0.67-0.72-1.28-0.72-1.82
		c0-0.73,0.4-1.37,1.19-1.93C123.03,161.71,123.84,161.44,124.7,161.44z"/>
</g>
</svg>
